<mxfile host="app.diagrams.net" modified="2024-03-12T05:53:16.171Z" agent="Mozilla/5.0 (Windows NT 10.0; Win64; x64) AppleWebKit/537.36 (KHTML, like Gecko) Chrome/122.0.0.0 Safari/537.36" etag="NSBD2DYtUDez1t077VxA" version="23.1.5" type="github">
  <diagram name="第 1 页" id="-W5_HEzraZ7c7popsZ5I">
    <mxGraphModel dx="1077" dy="586" grid="1" gridSize="10" guides="1" tooltips="1" connect="1" arrows="1" fold="1" page="1" pageScale="1" pageWidth="827" pageHeight="1169" math="0" shadow="0">
      <root>
        <mxCell id="0" />
        <mxCell id="1" parent="0" />
        <mxCell id="eZ7FckkpStWGKqd6wPCu-10" style="edgeStyle=orthogonalEdgeStyle;rounded=0;orthogonalLoop=1;jettySize=auto;html=1;entryX=0.5;entryY=1;entryDx=0;entryDy=0;endSize=4;endArrow=blockThin;endFill=1;" parent="1" source="eZ7FckkpStWGKqd6wPCu-1" edge="1">
          <mxGeometry relative="1" as="geometry">
            <mxPoint x="100" y="440" as="targetPoint" />
          </mxGeometry>
        </mxCell>
        <mxCell id="eZ7FckkpStWGKqd6wPCu-1" value="&lt;font style=&quot;font-size: 10px;&quot;&gt;Norm&lt;/font&gt;" style="rounded=0;whiteSpace=wrap;html=1;fillColor=#dae8fc;strokeColor=#6c8ebf;" parent="1" vertex="1">
          <mxGeometry x="60" y="460" width="80" height="20" as="geometry" />
        </mxCell>
        <mxCell id="eZ7FckkpStWGKqd6wPCu-7" style="edgeStyle=orthogonalEdgeStyle;rounded=0;orthogonalLoop=1;jettySize=auto;html=1;entryX=0.5;entryY=1;entryDx=0;entryDy=0;endArrow=blockThin;endFill=1;endSize=4;" parent="1" source="eZ7FckkpStWGKqd6wPCu-2" target="eZ7FckkpStWGKqd6wPCu-6" edge="1">
          <mxGeometry relative="1" as="geometry" />
        </mxCell>
        <mxCell id="eZ7FckkpStWGKqd6wPCu-2" value="&lt;font style=&quot;font-size: 10px;&quot;&gt;Embeded Patches&lt;/font&gt;" style="rounded=0;whiteSpace=wrap;html=1;fillColor=#ffe6cc;strokeColor=#d79b00;" parent="1" vertex="1">
          <mxGeometry x="40" y="540" width="120" height="20" as="geometry" />
        </mxCell>
        <mxCell id="eZ7FckkpStWGKqd6wPCu-23" style="edgeStyle=orthogonalEdgeStyle;rounded=0;orthogonalLoop=1;jettySize=auto;html=1;entryX=0.5;entryY=1;entryDx=0;entryDy=0;endArrow=blockThin;endFill=1;endSize=4;" parent="1" source="eZ7FckkpStWGKqd6wPCu-3" target="eZ7FckkpStWGKqd6wPCu-21" edge="1">
          <mxGeometry relative="1" as="geometry" />
        </mxCell>
        <mxCell id="eZ7FckkpStWGKqd6wPCu-3" value="&lt;font style=&quot;font-size: 10px;&quot;&gt;MHA&lt;/font&gt;" style="rounded=0;whiteSpace=wrap;html=1;fillColor=#d5e8d4;strokeColor=#82b366;" parent="1" vertex="1">
          <mxGeometry x="60" y="420" width="80" height="20" as="geometry" />
        </mxCell>
        <mxCell id="eZ7FckkpStWGKqd6wPCu-19" style="edgeStyle=orthogonalEdgeStyle;rounded=0;orthogonalLoop=1;jettySize=auto;html=1;entryX=0.5;entryY=1;entryDx=0;entryDy=0;endArrow=blockThin;endFill=1;endSize=4;" parent="1" source="eZ7FckkpStWGKqd6wPCu-4" target="eZ7FckkpStWGKqd6wPCu-17" edge="1">
          <mxGeometry relative="1" as="geometry" />
        </mxCell>
        <mxCell id="eZ7FckkpStWGKqd6wPCu-4" value="&lt;font style=&quot;font-size: 10px;&quot;&gt;MLP&lt;/font&gt;" style="rounded=0;whiteSpace=wrap;html=1;fillColor=#fff2cc;strokeColor=#d6b656;" parent="1" vertex="1">
          <mxGeometry x="60" y="300" width="80" height="20" as="geometry" />
        </mxCell>
        <mxCell id="eZ7FckkpStWGKqd6wPCu-16" style="edgeStyle=orthogonalEdgeStyle;rounded=0;orthogonalLoop=1;jettySize=auto;html=1;entryX=0.5;entryY=1;entryDx=0;entryDy=0;endArrow=blockThin;endFill=1;endSize=4;" parent="1" source="eZ7FckkpStWGKqd6wPCu-5" target="eZ7FckkpStWGKqd6wPCu-4" edge="1">
          <mxGeometry relative="1" as="geometry" />
        </mxCell>
        <mxCell id="eZ7FckkpStWGKqd6wPCu-5" value="&lt;font style=&quot;font-size: 10px;&quot;&gt;Norm&lt;/font&gt;" style="rounded=0;whiteSpace=wrap;html=1;fillColor=#dae8fc;strokeColor=#6c8ebf;" parent="1" vertex="1">
          <mxGeometry x="60" y="340" width="80" height="20" as="geometry" />
        </mxCell>
        <mxCell id="eZ7FckkpStWGKqd6wPCu-8" style="edgeStyle=orthogonalEdgeStyle;rounded=0;orthogonalLoop=1;jettySize=auto;html=1;entryX=0.5;entryY=1;entryDx=0;entryDy=0;endArrow=blockThin;endFill=1;endSize=4;" parent="1" source="eZ7FckkpStWGKqd6wPCu-6" target="eZ7FckkpStWGKqd6wPCu-1" edge="1">
          <mxGeometry relative="1" as="geometry" />
        </mxCell>
        <mxCell id="eZ7FckkpStWGKqd6wPCu-6" value="" style="shape=orEllipse;perimeter=ellipsePerimeter;whiteSpace=wrap;html=1;backgroundOutline=1;" parent="1" vertex="1">
          <mxGeometry x="90" y="500" width="20" height="20" as="geometry" />
        </mxCell>
        <mxCell id="eZ7FckkpStWGKqd6wPCu-26" style="edgeStyle=orthogonalEdgeStyle;rounded=0;orthogonalLoop=1;jettySize=auto;html=1;endSize=4;endArrow=blockThin;endFill=1;" parent="1" source="eZ7FckkpStWGKqd6wPCu-17" edge="1">
          <mxGeometry relative="1" as="geometry">
            <mxPoint x="100" y="240" as="targetPoint" />
          </mxGeometry>
        </mxCell>
        <mxCell id="eZ7FckkpStWGKqd6wPCu-17" value="" style="shape=orEllipse;perimeter=ellipsePerimeter;whiteSpace=wrap;html=1;backgroundOutline=1;" parent="1" vertex="1">
          <mxGeometry x="90" y="260" width="20" height="20" as="geometry" />
        </mxCell>
        <mxCell id="eZ7FckkpStWGKqd6wPCu-20" value="" style="endArrow=blockThin;html=1;rounded=0;entryX=0;entryY=0.5;entryDx=0;entryDy=0;endFill=1;endSize=4;" parent="1" target="eZ7FckkpStWGKqd6wPCu-17" edge="1">
          <mxGeometry width="50" height="50" relative="1" as="geometry">
            <mxPoint x="100" y="373" as="sourcePoint" />
            <mxPoint x="90" y="310" as="targetPoint" />
            <Array as="points">
              <mxPoint x="50" y="373" />
              <mxPoint x="50" y="270" />
            </Array>
          </mxGeometry>
        </mxCell>
        <mxCell id="eZ7FckkpStWGKqd6wPCu-24" style="edgeStyle=orthogonalEdgeStyle;rounded=0;orthogonalLoop=1;jettySize=auto;html=1;entryX=0.5;entryY=1;entryDx=0;entryDy=0;endArrow=blockThin;endFill=1;endSize=4;" parent="1" source="eZ7FckkpStWGKqd6wPCu-21" target="eZ7FckkpStWGKqd6wPCu-5" edge="1">
          <mxGeometry relative="1" as="geometry" />
        </mxCell>
        <mxCell id="eZ7FckkpStWGKqd6wPCu-21" value="" style="shape=orEllipse;perimeter=ellipsePerimeter;whiteSpace=wrap;html=1;backgroundOutline=1;" parent="1" vertex="1">
          <mxGeometry x="90" y="380" width="20" height="20" as="geometry" />
        </mxCell>
        <mxCell id="eZ7FckkpStWGKqd6wPCu-25" value="" style="endArrow=blockThin;html=1;rounded=0;entryX=0;entryY=0.5;entryDx=0;entryDy=0;endFill=1;endSize=4;" parent="1" edge="1">
          <mxGeometry width="50" height="50" relative="1" as="geometry">
            <mxPoint x="100" y="493" as="sourcePoint" />
            <mxPoint x="90" y="390" as="targetPoint" />
            <Array as="points">
              <mxPoint x="50" y="493" />
              <mxPoint x="50" y="390" />
            </Array>
          </mxGeometry>
        </mxCell>
        <mxCell id="eZ7FckkpStWGKqd6wPCu-112" style="edgeStyle=orthogonalEdgeStyle;rounded=0;orthogonalLoop=1;jettySize=auto;html=1;entryX=0.5;entryY=1;entryDx=0;entryDy=0;" parent="1" source="eZ7FckkpStWGKqd6wPCu-28" target="eZ7FckkpStWGKqd6wPCu-72" edge="1">
          <mxGeometry relative="1" as="geometry" />
        </mxCell>
        <mxCell id="eZ7FckkpStWGKqd6wPCu-28" value="" style="whiteSpace=wrap;html=1;aspect=fixed;" parent="1" vertex="1">
          <mxGeometry x="280" y="520" width="20" height="20" as="geometry" />
        </mxCell>
        <mxCell id="eZ7FckkpStWGKqd6wPCu-113" style="edgeStyle=orthogonalEdgeStyle;rounded=0;orthogonalLoop=1;jettySize=auto;html=1;entryX=0.5;entryY=1;entryDx=0;entryDy=0;" parent="1" source="eZ7FckkpStWGKqd6wPCu-29" target="eZ7FckkpStWGKqd6wPCu-75" edge="1">
          <mxGeometry relative="1" as="geometry" />
        </mxCell>
        <mxCell id="eZ7FckkpStWGKqd6wPCu-29" value="" style="whiteSpace=wrap;html=1;aspect=fixed;" parent="1" vertex="1">
          <mxGeometry x="310" y="520" width="20" height="20" as="geometry" />
        </mxCell>
        <mxCell id="eZ7FckkpStWGKqd6wPCu-114" style="edgeStyle=orthogonalEdgeStyle;rounded=0;orthogonalLoop=1;jettySize=auto;html=1;entryX=0.5;entryY=1;entryDx=0;entryDy=0;" parent="1" source="eZ7FckkpStWGKqd6wPCu-30" target="eZ7FckkpStWGKqd6wPCu-79" edge="1">
          <mxGeometry relative="1" as="geometry" />
        </mxCell>
        <mxCell id="eZ7FckkpStWGKqd6wPCu-30" value="" style="whiteSpace=wrap;html=1;aspect=fixed;" parent="1" vertex="1">
          <mxGeometry x="340" y="520" width="20" height="20" as="geometry" />
        </mxCell>
        <mxCell id="eZ7FckkpStWGKqd6wPCu-115" style="edgeStyle=orthogonalEdgeStyle;rounded=0;orthogonalLoop=1;jettySize=auto;html=1;entryX=0.5;entryY=1;entryDx=0;entryDy=0;" parent="1" source="eZ7FckkpStWGKqd6wPCu-31" target="eZ7FckkpStWGKqd6wPCu-83" edge="1">
          <mxGeometry relative="1" as="geometry" />
        </mxCell>
        <mxCell id="eZ7FckkpStWGKqd6wPCu-31" value="" style="whiteSpace=wrap;html=1;aspect=fixed;" parent="1" vertex="1">
          <mxGeometry x="370" y="520" width="20" height="20" as="geometry" />
        </mxCell>
        <mxCell id="eZ7FckkpStWGKqd6wPCu-117" style="edgeStyle=orthogonalEdgeStyle;rounded=0;orthogonalLoop=1;jettySize=auto;html=1;entryX=0.5;entryY=1;entryDx=0;entryDy=0;" parent="1" source="eZ7FckkpStWGKqd6wPCu-32" target="eZ7FckkpStWGKqd6wPCu-86" edge="1">
          <mxGeometry relative="1" as="geometry" />
        </mxCell>
        <mxCell id="eZ7FckkpStWGKqd6wPCu-32" value="" style="whiteSpace=wrap;html=1;aspect=fixed;" parent="1" vertex="1">
          <mxGeometry x="400" y="520" width="20" height="20" as="geometry" />
        </mxCell>
        <mxCell id="eZ7FckkpStWGKqd6wPCu-121" style="edgeStyle=orthogonalEdgeStyle;rounded=0;orthogonalLoop=1;jettySize=auto;html=1;entryX=0.5;entryY=1;entryDx=0;entryDy=0;" parent="1" source="eZ7FckkpStWGKqd6wPCu-35" target="eZ7FckkpStWGKqd6wPCu-98" edge="1">
          <mxGeometry relative="1" as="geometry" />
        </mxCell>
        <mxCell id="eZ7FckkpStWGKqd6wPCu-35" value="" style="whiteSpace=wrap;html=1;aspect=fixed;" parent="1" vertex="1">
          <mxGeometry x="460" y="520" width="20" height="20" as="geometry" />
        </mxCell>
        <mxCell id="eZ7FckkpStWGKqd6wPCu-122" style="edgeStyle=orthogonalEdgeStyle;rounded=0;orthogonalLoop=1;jettySize=auto;html=1;entryX=0.5;entryY=1;entryDx=0;entryDy=0;" parent="1" source="eZ7FckkpStWGKqd6wPCu-36" target="eZ7FckkpStWGKqd6wPCu-101" edge="1">
          <mxGeometry relative="1" as="geometry" />
        </mxCell>
        <mxCell id="eZ7FckkpStWGKqd6wPCu-36" value="" style="whiteSpace=wrap;html=1;aspect=fixed;" parent="1" vertex="1">
          <mxGeometry x="490" y="520" width="20" height="20" as="geometry" />
        </mxCell>
        <mxCell id="eZ7FckkpStWGKqd6wPCu-69" value="" style="group" parent="1" vertex="1" connectable="0">
          <mxGeometry x="245" y="440" width="20" height="20" as="geometry" />
        </mxCell>
        <mxCell id="eZ7FckkpStWGKqd6wPCu-51" value="&lt;font style=&quot;font-size: 10px;&quot;&gt;0&lt;/font&gt;" style="rounded=1;whiteSpace=wrap;html=1;fillColor=#dae8fc;strokeColor=#6c8ebf;" parent="eZ7FckkpStWGKqd6wPCu-69" vertex="1">
          <mxGeometry width="10" height="20" as="geometry" />
        </mxCell>
        <mxCell id="eZ7FckkpStWGKqd6wPCu-52" value="&lt;font style=&quot;font-size: 10px;&quot;&gt;*&lt;/font&gt;" style="rounded=1;whiteSpace=wrap;html=1;fillColor=#d5e8d4;strokeColor=#82b366;" parent="eZ7FckkpStWGKqd6wPCu-69" vertex="1">
          <mxGeometry x="10" width="10" height="20" as="geometry" />
        </mxCell>
        <mxCell id="eZ7FckkpStWGKqd6wPCu-70" value="" style="group" parent="1" vertex="1" connectable="0">
          <mxGeometry x="275" y="440" width="20" height="20" as="geometry" />
        </mxCell>
        <mxCell id="eZ7FckkpStWGKqd6wPCu-71" value="&lt;font style=&quot;font-size: 10px;&quot;&gt;1&lt;/font&gt;" style="rounded=1;whiteSpace=wrap;html=1;fillColor=#dae8fc;strokeColor=#6c8ebf;" parent="eZ7FckkpStWGKqd6wPCu-70" vertex="1">
          <mxGeometry width="10" height="20" as="geometry" />
        </mxCell>
        <mxCell id="eZ7FckkpStWGKqd6wPCu-72" value="" style="rounded=1;whiteSpace=wrap;html=1;fillColor=#d5e8d4;strokeColor=#82b366;" parent="eZ7FckkpStWGKqd6wPCu-70" vertex="1">
          <mxGeometry x="10" width="10" height="20" as="geometry" />
        </mxCell>
        <mxCell id="eZ7FckkpStWGKqd6wPCu-73" value="" style="group" parent="1" vertex="1" connectable="0">
          <mxGeometry x="305" y="440" width="20" height="20" as="geometry" />
        </mxCell>
        <mxCell id="eZ7FckkpStWGKqd6wPCu-74" value="&lt;font style=&quot;font-size: 10px;&quot;&gt;2&lt;/font&gt;" style="rounded=1;whiteSpace=wrap;html=1;fillColor=#dae8fc;strokeColor=#6c8ebf;" parent="eZ7FckkpStWGKqd6wPCu-73" vertex="1">
          <mxGeometry width="10" height="20" as="geometry" />
        </mxCell>
        <mxCell id="eZ7FckkpStWGKqd6wPCu-75" value="" style="rounded=1;whiteSpace=wrap;html=1;fillColor=#d5e8d4;strokeColor=#82b366;" parent="eZ7FckkpStWGKqd6wPCu-73" vertex="1">
          <mxGeometry x="10" width="10" height="20" as="geometry" />
        </mxCell>
        <mxCell id="eZ7FckkpStWGKqd6wPCu-77" value="" style="group" parent="1" vertex="1" connectable="0">
          <mxGeometry x="335" y="440" width="20" height="20" as="geometry" />
        </mxCell>
        <mxCell id="eZ7FckkpStWGKqd6wPCu-78" value="&lt;font style=&quot;font-size: 10px;&quot;&gt;3&lt;/font&gt;" style="rounded=1;whiteSpace=wrap;html=1;fillColor=#dae8fc;strokeColor=#6c8ebf;" parent="eZ7FckkpStWGKqd6wPCu-77" vertex="1">
          <mxGeometry width="10" height="20" as="geometry" />
        </mxCell>
        <mxCell id="eZ7FckkpStWGKqd6wPCu-79" value="" style="rounded=1;whiteSpace=wrap;html=1;fillColor=#d5e8d4;strokeColor=#82b366;" parent="eZ7FckkpStWGKqd6wPCu-77" vertex="1">
          <mxGeometry x="10" width="10" height="20" as="geometry" />
        </mxCell>
        <mxCell id="eZ7FckkpStWGKqd6wPCu-81" value="" style="group" parent="1" vertex="1" connectable="0">
          <mxGeometry x="365" y="440" width="20" height="20" as="geometry" />
        </mxCell>
        <mxCell id="eZ7FckkpStWGKqd6wPCu-82" value="&lt;font style=&quot;font-size: 10px;&quot;&gt;4&lt;/font&gt;" style="rounded=1;whiteSpace=wrap;html=1;fillColor=#dae8fc;strokeColor=#6c8ebf;" parent="eZ7FckkpStWGKqd6wPCu-81" vertex="1">
          <mxGeometry width="10" height="20" as="geometry" />
        </mxCell>
        <mxCell id="eZ7FckkpStWGKqd6wPCu-83" value="" style="rounded=1;whiteSpace=wrap;html=1;fillColor=#d5e8d4;strokeColor=#82b366;" parent="eZ7FckkpStWGKqd6wPCu-81" vertex="1">
          <mxGeometry x="10" width="10" height="20" as="geometry" />
        </mxCell>
        <mxCell id="eZ7FckkpStWGKqd6wPCu-84" value="" style="group" parent="1" vertex="1" connectable="0">
          <mxGeometry x="395" y="440" width="20" height="20" as="geometry" />
        </mxCell>
        <mxCell id="eZ7FckkpStWGKqd6wPCu-85" value="&lt;font style=&quot;font-size: 10px;&quot;&gt;5&lt;/font&gt;" style="rounded=1;whiteSpace=wrap;html=1;fillColor=#dae8fc;strokeColor=#6c8ebf;" parent="eZ7FckkpStWGKqd6wPCu-84" vertex="1">
          <mxGeometry width="10" height="20" as="geometry" />
        </mxCell>
        <mxCell id="eZ7FckkpStWGKqd6wPCu-86" value="" style="rounded=1;whiteSpace=wrap;html=1;fillColor=#d5e8d4;strokeColor=#82b366;" parent="eZ7FckkpStWGKqd6wPCu-84" vertex="1">
          <mxGeometry x="10" width="10" height="20" as="geometry" />
        </mxCell>
        <mxCell id="eZ7FckkpStWGKqd6wPCu-87" value="" style="group" parent="1" vertex="1" connectable="0">
          <mxGeometry x="425" y="440" width="20" height="20" as="geometry" />
        </mxCell>
        <mxCell id="eZ7FckkpStWGKqd6wPCu-88" value="&lt;font style=&quot;font-size: 10px;&quot;&gt;6&lt;/font&gt;" style="rounded=1;whiteSpace=wrap;html=1;fillColor=#dae8fc;strokeColor=#6c8ebf;" parent="eZ7FckkpStWGKqd6wPCu-87" vertex="1">
          <mxGeometry width="10" height="20" as="geometry" />
        </mxCell>
        <mxCell id="eZ7FckkpStWGKqd6wPCu-89" value="" style="rounded=1;whiteSpace=wrap;html=1;fillColor=#d5e8d4;strokeColor=#82b366;" parent="eZ7FckkpStWGKqd6wPCu-87" vertex="1">
          <mxGeometry x="10" width="10" height="20" as="geometry" />
        </mxCell>
        <mxCell id="eZ7FckkpStWGKqd6wPCu-96" value="" style="group" parent="1" vertex="1" connectable="0">
          <mxGeometry x="455" y="440" width="20" height="20" as="geometry" />
        </mxCell>
        <mxCell id="eZ7FckkpStWGKqd6wPCu-97" value="&lt;font style=&quot;font-size: 10px;&quot;&gt;7&lt;/font&gt;" style="rounded=1;whiteSpace=wrap;html=1;fillColor=#dae8fc;strokeColor=#6c8ebf;" parent="eZ7FckkpStWGKqd6wPCu-96" vertex="1">
          <mxGeometry width="10" height="20" as="geometry" />
        </mxCell>
        <mxCell id="eZ7FckkpStWGKqd6wPCu-98" value="" style="rounded=1;whiteSpace=wrap;html=1;fillColor=#d5e8d4;strokeColor=#82b366;" parent="eZ7FckkpStWGKqd6wPCu-96" vertex="1">
          <mxGeometry x="10" width="10" height="20" as="geometry" />
        </mxCell>
        <mxCell id="eZ7FckkpStWGKqd6wPCu-99" value="" style="group" parent="1" vertex="1" connectable="0">
          <mxGeometry x="485" y="440" width="20" height="20" as="geometry" />
        </mxCell>
        <mxCell id="eZ7FckkpStWGKqd6wPCu-100" value="&lt;font style=&quot;font-size: 10px;&quot;&gt;8&lt;/font&gt;" style="rounded=1;whiteSpace=wrap;html=1;fillColor=#dae8fc;strokeColor=#6c8ebf;" parent="eZ7FckkpStWGKqd6wPCu-99" vertex="1">
          <mxGeometry width="10" height="20" as="geometry" />
        </mxCell>
        <mxCell id="eZ7FckkpStWGKqd6wPCu-101" value="" style="rounded=1;whiteSpace=wrap;html=1;fillColor=#d5e8d4;strokeColor=#82b366;" parent="eZ7FckkpStWGKqd6wPCu-99" vertex="1">
          <mxGeometry x="10" width="10" height="20" as="geometry" />
        </mxCell>
        <mxCell id="eZ7FckkpStWGKqd6wPCu-105" value="" style="group" parent="1" vertex="1" connectable="0">
          <mxGeometry x="515" y="440" width="20" height="20" as="geometry" />
        </mxCell>
        <mxCell id="eZ7FckkpStWGKqd6wPCu-106" value="&lt;font style=&quot;font-size: 10px;&quot;&gt;9&lt;/font&gt;" style="rounded=1;whiteSpace=wrap;html=1;fillColor=#dae8fc;strokeColor=#6c8ebf;" parent="eZ7FckkpStWGKqd6wPCu-105" vertex="1">
          <mxGeometry width="10" height="20" as="geometry" />
        </mxCell>
        <mxCell id="eZ7FckkpStWGKqd6wPCu-107" value="" style="rounded=1;whiteSpace=wrap;html=1;fillColor=#d5e8d4;strokeColor=#82b366;" parent="eZ7FckkpStWGKqd6wPCu-105" vertex="1">
          <mxGeometry x="10" width="10" height="20" as="geometry" />
        </mxCell>
        <mxCell id="eZ7FckkpStWGKqd6wPCu-120" style="edgeStyle=orthogonalEdgeStyle;rounded=0;orthogonalLoop=1;jettySize=auto;html=1;entryX=0.5;entryY=1;entryDx=0;entryDy=0;" parent="1" source="eZ7FckkpStWGKqd6wPCu-119" target="eZ7FckkpStWGKqd6wPCu-89" edge="1">
          <mxGeometry relative="1" as="geometry" />
        </mxCell>
        <mxCell id="eZ7FckkpStWGKqd6wPCu-119" value="" style="whiteSpace=wrap;html=1;aspect=fixed;" parent="1" vertex="1">
          <mxGeometry x="430" y="520" width="20" height="20" as="geometry" />
        </mxCell>
        <mxCell id="eZ7FckkpStWGKqd6wPCu-124" style="edgeStyle=orthogonalEdgeStyle;rounded=0;orthogonalLoop=1;jettySize=auto;html=1;entryX=0.5;entryY=1;entryDx=0;entryDy=0;" parent="1" source="eZ7FckkpStWGKqd6wPCu-123" target="eZ7FckkpStWGKqd6wPCu-107" edge="1">
          <mxGeometry relative="1" as="geometry" />
        </mxCell>
        <mxCell id="eZ7FckkpStWGKqd6wPCu-123" value="" style="whiteSpace=wrap;html=1;aspect=fixed;" parent="1" vertex="1">
          <mxGeometry x="520" y="520" width="20" height="20" as="geometry" />
        </mxCell>
        <mxCell id="eZ7FckkpStWGKqd6wPCu-27" value="&lt;font style=&quot;font-size: 10px;&quot;&gt;Linear Projection of Flattened Patches&lt;/font&gt;" style="rounded=0;whiteSpace=wrap;html=1;fillColor=#ffe6cc;strokeColor=#d79b00;" parent="1" vertex="1">
          <mxGeometry x="272" y="480" width="270" height="20" as="geometry" />
        </mxCell>
        <mxCell id="eZ7FckkpStWGKqd6wPCu-126" value="&lt;font style=&quot;font-size: 10px;&quot;&gt;Linear Projection of Flattened Patches&lt;/font&gt;" style="rounded=0;whiteSpace=wrap;html=1;fillColor=#ffe6cc;strokeColor=#d79b00;" parent="1" vertex="1">
          <mxGeometry x="240" y="400" width="300" height="20" as="geometry" />
        </mxCell>
        <mxCell id="eZ7FckkpStWGKqd6wPCu-134" value="" style="endArrow=blockThin;html=1;rounded=0;endSize=4;endFill=1;" parent="1" edge="1">
          <mxGeometry width="50" height="50" relative="1" as="geometry">
            <mxPoint x="260.76" y="440" as="sourcePoint" />
            <mxPoint x="261" y="420" as="targetPoint" />
          </mxGeometry>
        </mxCell>
      </root>
    </mxGraphModel>
  </diagram>
</mxfile>
